<mxfile host="app.diagrams.net" modified="2022-06-07T08:41:35.448Z" agent="5.0 (Macintosh; Intel Mac OS X 10_15_7) AppleWebKit/537.36 (KHTML, like Gecko) Chrome/102.0.5005.61 Safari/537.36" etag="Ot7OylGcf_XQTRqDh7I7" version="19.0.1" type="github">
  <diagram id="wOc8UIWkjOKJnS6ejds8" name="Page-1">
    <mxGraphModel dx="786" dy="1523" grid="1" gridSize="10" guides="1" tooltips="1" connect="1" arrows="1" fold="1" page="1" pageScale="1" pageWidth="850" pageHeight="1100" math="0" shadow="0">
      <root>
        <mxCell id="0" />
        <mxCell id="1" parent="0" />
        <mxCell id="eX-RVW1_1B3NWXqgvJdq-2" value="Profile Service" style="rounded=1;whiteSpace=wrap;html=1;fillColor=#fff2cc;strokeColor=#d6b656;" parent="1" vertex="1">
          <mxGeometry x="430" y="90" width="120" height="60" as="geometry" />
        </mxCell>
        <mxCell id="eX-RVW1_1B3NWXqgvJdq-3" value="Payment Service" style="rounded=1;whiteSpace=wrap;html=1;fillColor=#fff2cc;strokeColor=#d6b656;" parent="1" vertex="1">
          <mxGeometry x="610" y="90" width="120" height="60" as="geometry" />
        </mxCell>
        <mxCell id="eX-RVW1_1B3NWXqgvJdq-4" value="Auth Service" style="rounded=1;whiteSpace=wrap;html=1;fillColor=#fff2cc;strokeColor=#d6b656;" parent="1" vertex="1">
          <mxGeometry x="240" y="90" width="120" height="60" as="geometry" />
        </mxCell>
        <mxCell id="eX-RVW1_1B3NWXqgvJdq-5" value="Actor" style="shape=umlActor;verticalLabelPosition=bottom;verticalAlign=top;html=1;outlineConnect=0;" parent="1" vertex="1">
          <mxGeometry x="475" y="-140" width="30" height="60" as="geometry" />
        </mxCell>
        <mxCell id="eX-RVW1_1B3NWXqgvJdq-6" value="" style="outlineConnect=0;dashed=0;verticalLabelPosition=bottom;verticalAlign=top;align=center;html=1;shape=mxgraph.aws3.api_gateway;fillColor=#D9A741;gradientColor=none;" parent="1" vertex="1">
          <mxGeometry x="465" y="-20" width="50" height="70" as="geometry" />
        </mxCell>
        <mxCell id="eX-RVW1_1B3NWXqgvJdq-7" value="" style="endArrow=classic;html=1;rounded=0;entryX=0.5;entryY=0;entryDx=0;entryDy=0;edgeStyle=orthogonalEdgeStyle;" parent="1" source="eX-RVW1_1B3NWXqgvJdq-6" target="eX-RVW1_1B3NWXqgvJdq-4" edge="1">
          <mxGeometry width="50" height="50" relative="1" as="geometry">
            <mxPoint x="380" y="90" as="sourcePoint" />
            <mxPoint x="430" y="40" as="targetPoint" />
          </mxGeometry>
        </mxCell>
        <mxCell id="eX-RVW1_1B3NWXqgvJdq-9" value="" style="endArrow=classic;html=1;rounded=0;exitX=1;exitY=0.21;exitDx=0;exitDy=0;exitPerimeter=0;entryX=0.5;entryY=0;entryDx=0;entryDy=0;edgeStyle=orthogonalEdgeStyle;" parent="1" source="eX-RVW1_1B3NWXqgvJdq-6" target="eX-RVW1_1B3NWXqgvJdq-3" edge="1">
          <mxGeometry width="50" height="50" relative="1" as="geometry">
            <mxPoint x="380" y="90" as="sourcePoint" />
            <mxPoint x="430" y="40" as="targetPoint" />
          </mxGeometry>
        </mxCell>
        <mxCell id="eX-RVW1_1B3NWXqgvJdq-10" value="" style="endArrow=classic;html=1;rounded=0;exitX=0.5;exitY=1;exitDx=0;exitDy=0;exitPerimeter=0;entryX=0.5;entryY=0;entryDx=0;entryDy=0;" parent="1" source="eX-RVW1_1B3NWXqgvJdq-6" target="eX-RVW1_1B3NWXqgvJdq-2" edge="1">
          <mxGeometry width="50" height="50" relative="1" as="geometry">
            <mxPoint x="380" y="90" as="sourcePoint" />
            <mxPoint x="430" y="40" as="targetPoint" />
          </mxGeometry>
        </mxCell>
        <mxCell id="eX-RVW1_1B3NWXqgvJdq-11" value="" style="endArrow=classic;html=1;rounded=0;exitX=0.25;exitY=1;exitDx=0;exitDy=0;entryX=0.5;entryY=0;entryDx=0;entryDy=0;" parent="1" source="eX-RVW1_1B3NWXqgvJdq-4" target="eX-RVW1_1B3NWXqgvJdq-20" edge="1">
          <mxGeometry width="50" height="50" relative="1" as="geometry">
            <mxPoint x="380" y="180" as="sourcePoint" />
            <mxPoint x="150.03999999999996" y="230" as="targetPoint" />
          </mxGeometry>
        </mxCell>
        <mxCell id="eX-RVW1_1B3NWXqgvJdq-14" value="HTTPS ( through file beats )" style="text;html=1;strokeColor=none;fillColor=none;align=center;verticalAlign=middle;whiteSpace=wrap;rounded=0;" parent="1" vertex="1">
          <mxGeometry x="150" y="170" width="60" height="30" as="geometry" />
        </mxCell>
        <mxCell id="eX-RVW1_1B3NWXqgvJdq-16" value="" style="endArrow=classic;html=1;rounded=0;entryX=0.75;entryY=0;entryDx=0;entryDy=0;" parent="1" source="eX-RVW1_1B3NWXqgvJdq-2" target="eX-RVW1_1B3NWXqgvJdq-20" edge="1">
          <mxGeometry width="50" height="50" relative="1" as="geometry">
            <mxPoint x="380" y="290" as="sourcePoint" />
            <mxPoint x="210" y="240" as="targetPoint" />
          </mxGeometry>
        </mxCell>
        <mxCell id="eX-RVW1_1B3NWXqgvJdq-17" value="" style="endArrow=classic;html=1;rounded=0;exitX=0;exitY=1;exitDx=0;exitDy=0;" parent="1" source="eX-RVW1_1B3NWXqgvJdq-3" target="eX-RVW1_1B3NWXqgvJdq-20" edge="1">
          <mxGeometry width="50" height="50" relative="1" as="geometry">
            <mxPoint x="380" y="290" as="sourcePoint" />
            <mxPoint x="220" y="245" as="targetPoint" />
          </mxGeometry>
        </mxCell>
        <mxCell id="eX-RVW1_1B3NWXqgvJdq-20" value="ELK Service ( Analytics &amp;amp; Logs )" style="rounded=1;whiteSpace=wrap;html=1;fillColor=#fff2cc;strokeColor=#d6b656;" parent="1" vertex="1">
          <mxGeometry x="100" y="230" width="120" height="60" as="geometry" />
        </mxCell>
        <mxCell id="eX-RVW1_1B3NWXqgvJdq-21" value="" style="sketch=0;points=[[0,0,0],[0.25,0,0],[0.5,0,0],[0.75,0,0],[1,0,0],[0,1,0],[0.25,1,0],[0.5,1,0],[0.75,1,0],[1,1,0],[0,0.25,0],[0,0.5,0],[0,0.75,0],[1,0.25,0],[1,0.5,0],[1,0.75,0]];outlineConnect=0;fontColor=#232F3E;gradientColor=#FF4F8B;gradientDirection=north;fillColor=#BC1356;strokeColor=#ffffff;dashed=0;verticalLabelPosition=bottom;verticalAlign=top;align=center;html=1;fontSize=12;fontStyle=0;aspect=fixed;shape=mxgraph.aws4.resourceIcon;resIcon=mxgraph.aws4.mq;" parent="1" vertex="1">
          <mxGeometry x="550" y="190" width="78" height="78" as="geometry" />
        </mxCell>
        <mxCell id="eX-RVW1_1B3NWXqgvJdq-22" value="" style="endArrow=classic;html=1;rounded=0;" parent="1" source="eX-RVW1_1B3NWXqgvJdq-2" target="eX-RVW1_1B3NWXqgvJdq-21" edge="1">
          <mxGeometry width="50" height="50" relative="1" as="geometry">
            <mxPoint x="380" y="210" as="sourcePoint" />
            <mxPoint x="430" y="160" as="targetPoint" />
          </mxGeometry>
        </mxCell>
        <mxCell id="eX-RVW1_1B3NWXqgvJdq-23" value="" style="endArrow=classic;html=1;rounded=0;exitX=0.558;exitY=1.017;exitDx=0;exitDy=0;exitPerimeter=0;entryX=1;entryY=0.25;entryDx=0;entryDy=0;entryPerimeter=0;" parent="1" source="eX-RVW1_1B3NWXqgvJdq-3" target="eX-RVW1_1B3NWXqgvJdq-21" edge="1">
          <mxGeometry width="50" height="50" relative="1" as="geometry">
            <mxPoint x="380" y="210" as="sourcePoint" />
            <mxPoint x="430" y="160" as="targetPoint" />
          </mxGeometry>
        </mxCell>
        <mxCell id="eX-RVW1_1B3NWXqgvJdq-24" value="Push Payment Status" style="text;html=1;strokeColor=none;fillColor=none;align=center;verticalAlign=middle;whiteSpace=wrap;rounded=0;" parent="1" vertex="1">
          <mxGeometry x="660" y="170" width="60" height="30" as="geometry" />
        </mxCell>
        <mxCell id="eX-RVW1_1B3NWXqgvJdq-25" value="Listening" style="text;html=1;strokeColor=none;fillColor=none;align=center;verticalAlign=middle;whiteSpace=wrap;rounded=0;" parent="1" vertex="1">
          <mxGeometry x="490" y="180" width="60" height="30" as="geometry" />
        </mxCell>
        <mxCell id="eX-RVW1_1B3NWXqgvJdq-26" value="Data Store" style="shape=cylinder3;whiteSpace=wrap;html=1;boundedLbl=1;backgroundOutline=1;size=15;fillColor=#f5f5f5;fontColor=#333333;strokeColor=#666666;" parent="1" vertex="1">
          <mxGeometry x="280" y="250" width="60" height="80" as="geometry" />
        </mxCell>
        <mxCell id="eX-RVW1_1B3NWXqgvJdq-27" value="Data Store" style="shape=cylinder3;whiteSpace=wrap;html=1;boundedLbl=1;backgroundOutline=1;size=15;fillColor=#f5f5f5;fontColor=#333333;strokeColor=#666666;" parent="1" vertex="1">
          <mxGeometry x="445" y="250" width="60" height="80" as="geometry" />
        </mxCell>
        <mxCell id="eX-RVW1_1B3NWXqgvJdq-28" value="Data Store" style="shape=cylinder3;whiteSpace=wrap;html=1;boundedLbl=1;backgroundOutline=1;size=15;fillColor=#f5f5f5;fontColor=#333333;strokeColor=#666666;" parent="1" vertex="1">
          <mxGeometry x="670" y="250" width="60" height="80" as="geometry" />
        </mxCell>
        <mxCell id="eX-RVW1_1B3NWXqgvJdq-29" value="" style="endArrow=classic;html=1;rounded=0;exitX=0.5;exitY=1;exitDx=0;exitDy=0;entryX=0.855;entryY=0;entryDx=0;entryDy=4.35;entryPerimeter=0;" parent="1" source="eX-RVW1_1B3NWXqgvJdq-4" target="eX-RVW1_1B3NWXqgvJdq-26" edge="1">
          <mxGeometry width="50" height="50" relative="1" as="geometry">
            <mxPoint x="380" y="190" as="sourcePoint" />
            <mxPoint x="306" y="260" as="targetPoint" />
          </mxGeometry>
        </mxCell>
        <mxCell id="eX-RVW1_1B3NWXqgvJdq-30" value="" style="endArrow=classic;html=1;rounded=0;exitX=0.25;exitY=1;exitDx=0;exitDy=0;entryX=0.5;entryY=0;entryDx=0;entryDy=0;entryPerimeter=0;" parent="1" source="eX-RVW1_1B3NWXqgvJdq-2" target="eX-RVW1_1B3NWXqgvJdq-27" edge="1">
          <mxGeometry width="50" height="50" relative="1" as="geometry">
            <mxPoint x="380" y="190" as="sourcePoint" />
            <mxPoint x="430" y="140" as="targetPoint" />
          </mxGeometry>
        </mxCell>
        <mxCell id="eX-RVW1_1B3NWXqgvJdq-31" value="" style="endArrow=classic;html=1;rounded=0;exitX=1;exitY=1;exitDx=0;exitDy=0;entryX=0.855;entryY=0;entryDx=0;entryDy=4.35;entryPerimeter=0;" parent="1" source="eX-RVW1_1B3NWXqgvJdq-3" target="eX-RVW1_1B3NWXqgvJdq-28" edge="1">
          <mxGeometry width="50" height="50" relative="1" as="geometry">
            <mxPoint x="380" y="190" as="sourcePoint" />
            <mxPoint x="430" y="140" as="targetPoint" />
          </mxGeometry>
        </mxCell>
        <mxCell id="eX-RVW1_1B3NWXqgvJdq-32" value="Get Profile Data" style="rounded=1;whiteSpace=wrap;html=1;fillColor=#fff2cc;strokeColor=#d6b656;" parent="1" vertex="1">
          <mxGeometry x="540" y="350" width="120" height="60" as="geometry" />
        </mxCell>
        <mxCell id="eX-RVW1_1B3NWXqgvJdq-33" value="" style="endArrow=classic;html=1;rounded=0;exitX=0.425;exitY=1.033;exitDx=0;exitDy=0;exitPerimeter=0;entryX=0.75;entryY=0;entryDx=0;entryDy=0;" parent="1" source="eX-RVW1_1B3NWXqgvJdq-3" target="eX-RVW1_1B3NWXqgvJdq-32" edge="1">
          <mxGeometry width="50" height="50" relative="1" as="geometry">
            <mxPoint x="380" y="270" as="sourcePoint" />
            <mxPoint x="430" y="220" as="targetPoint" />
          </mxGeometry>
        </mxCell>
        <mxCell id="eX-RVW1_1B3NWXqgvJdq-34" value="" style="endArrow=classic;html=1;rounded=0;exitX=0.25;exitY=0;exitDx=0;exitDy=0;entryX=1;entryY=1;entryDx=0;entryDy=-15;entryPerimeter=0;" parent="1" source="eX-RVW1_1B3NWXqgvJdq-32" target="eX-RVW1_1B3NWXqgvJdq-27" edge="1">
          <mxGeometry width="50" height="50" relative="1" as="geometry">
            <mxPoint x="380" y="270" as="sourcePoint" />
            <mxPoint x="430" y="220" as="targetPoint" />
          </mxGeometry>
        </mxCell>
        <mxCell id="ki4sT2MCBMmw6VvyNz0M-1" value="" style="endArrow=classic;html=1;rounded=0;exitX=0.567;exitY=0.65;exitDx=0;exitDy=0;exitPerimeter=0;entryX=0.5;entryY=0;entryDx=0;entryDy=0;entryPerimeter=0;" edge="1" parent="1" source="eX-RVW1_1B3NWXqgvJdq-5" target="eX-RVW1_1B3NWXqgvJdq-6">
          <mxGeometry width="50" height="50" relative="1" as="geometry">
            <mxPoint x="380" y="70" as="sourcePoint" />
            <mxPoint x="430" y="20" as="targetPoint" />
          </mxGeometry>
        </mxCell>
      </root>
    </mxGraphModel>
  </diagram>
</mxfile>
